<svg width="24" height="24" viewBox="0 0 280 335" fill="none" xmlns="http://www.w3.org/2000/svg">
    <path d="M130.661 1.72184L16.8211 45.2315C11.857 47.1777 7.59568 50.5766 4.59453 54.9838C1.59338 59.391 -0.0079261 64.6013 2.95003e-05 69.9333V179.469L52.3176 149.403V87.814L139.999 54.1719V0C136.808 0.00687258 133.645 0.590189 130.661 1.72184Z" fill="currentColor" opacity="0.75"/>
    <path d="M53.2447 247.019L139.999 197.019V136.622L5.96023 213.906C4.15591 214.963 2.65765 216.472 1.61266 218.283C0.567668 220.094 0.0119121 222.146 0 224.237V264.701C0.0450543 269.987 1.67106 275.14 4.66878 279.495C7.66651 283.85 11.8988 287.208 16.8211 289.138L130.661 332.647C133.645 333.779 136.808 334.362 139.999 334.369V280.197L53.2447 247.019Z" fill="currentColor" opacity="0.75"/>
    <path d="M274.436 119.403C276.147 118.423 277.565 117.004 278.543 115.293C279.521 113.581 280.024 111.639 279.999 109.668V69.9333C280.007 64.6013 278.406 59.391 275.405 54.9838C272.404 50.5766 268.142 47.1776 263.178 45.2315L149.271 1.72184C146.309 0.598004 143.169 0.0148182 140 0V54.1718L226.092 87.2841L140 136.886V197.283L274.436 119.403Z" fill="currentColor" />
    <path d="M149.271 332.647L263.178 289.138C268.1 287.208 272.333 283.85 275.33 279.495C278.328 275.14 279.954 269.988 279.999 264.701V154.039L227.682 184.238V246.688L140 280.197V334.369C143.169 334.354 146.309 333.771 149.271 332.647Z" fill="currentColor"/>
</svg>
